<?xml version="1.0" encoding="UTF-8"?><svg id="Layer_2" xmlns="http://www.w3.org/2000/svg" xmlns:xlink="http://www.w3.org/1999/xlink" viewBox="0 0 299.97 69.08"><defs><style>.cls-1{fill:none;}.cls-2{fill:#34006b;}.cls-3{fill:url(#linear-gradient-8);}.cls-4{fill:url(#linear-gradient-7);}.cls-5{fill:url(#linear-gradient-5);}.cls-6{fill:url(#linear-gradient-6);}.cls-7{fill:url(#linear-gradient-9);}.cls-8{fill:url(#linear-gradient-4);}.cls-9{fill:url(#linear-gradient-3);}.cls-10{fill:url(#linear-gradient-2);}.cls-11{fill:url(#linear-gradient);}.cls-12{fill:url(#linear-gradient-10);}.cls-13{fill:url(#linear-gradient-11);}.cls-14{fill:url(#linear-gradient-12);}.cls-15{fill:url(#linear-gradient-13);}.cls-16{fill:url(#linear-gradient-19);}.cls-17{fill:url(#linear-gradient-14);}.cls-18{fill:url(#linear-gradient-21);}.cls-19{fill:url(#linear-gradient-20);}.cls-20{fill:url(#linear-gradient-22);}.cls-21{fill:url(#linear-gradient-23);}.cls-22{fill:url(#linear-gradient-25);}.cls-23{fill:url(#linear-gradient-15);}.cls-24{fill:url(#linear-gradient-16);}.cls-25{fill:url(#linear-gradient-17);}.cls-26{fill:url(#linear-gradient-18);}.cls-27{fill:url(#linear-gradient-24);}</style><linearGradient id="linear-gradient" x1="26.27" y1="46.27" x2="39.84" y2="22.87" gradientUnits="userSpaceOnUse"><stop offset=".16" stop-color="#f98b6a"/><stop offset=".58" stop-color="#db14e0"/><stop offset=".9" stop-color="#9702d7"/></linearGradient><linearGradient id="linear-gradient-2" x1="46.2" y1="24.42" x2="28.82" y2=".26" xlink:href="#linear-gradient"/><linearGradient id="linear-gradient-3" x1="5.83" y1="-9.41" x2="-8.75" y2="-21.35" gradientTransform="translate(27.68 36.07) rotate(.38)" gradientUnits="userSpaceOnUse"><stop offset=".04" stop-color="#b624df"/><stop offset=".9" stop-color="#6d1be2"/></linearGradient><linearGradient id="linear-gradient-4" x1="38.66" y1="46.82" x2="52.22" y2="23.42" xlink:href="#linear-gradient"/><linearGradient id="linear-gradient-5" x1="57.86" y1="-4.05" x2="29.2" y2="27.15" xlink:href="#linear-gradient"/><linearGradient id="linear-gradient-6" x1="20.45" y1="-14.79" x2="27.33" y2="-11.2" gradientTransform="translate(27.68 36.07) rotate(.38)" gradientUnits="userSpaceOnUse"><stop offset=".04" stop-color="#c53bff"/><stop offset=".9" stop-color="#e442fc"/></linearGradient><linearGradient id="linear-gradient-7" x1="-12.37" y1="4.35" x2="14.22" y2="4.35" xlink:href="#linear-gradient-3"/><linearGradient id="linear-gradient-8" x1="-8.75" y1="22.68" x2="-7.87" y2="8.91" gradientTransform="translate(27.68 36.07) rotate(.38)" gradientUnits="userSpaceOnUse"><stop offset="0" stop-color="#db14e0"/><stop offset=".9" stop-color="#7e00c1"/></linearGradient><linearGradient id="linear-gradient-9" x1="16.84" y1="30.58" x2="3.5" y2="20.97" gradientUnits="userSpaceOnUse"><stop offset=".37" stop-color="#db14e0"/><stop offset=".9" stop-color="#9702d7"/></linearGradient><linearGradient id="linear-gradient-10" x1="0" y1="35.73" x2="15.31" y2="35.73" gradientTransform="matrix(1,0,0,1,0,0)" xlink:href="#linear-gradient-3"/><linearGradient id="linear-gradient-11" x1="64.94" y1="61.58" x2="48.33" y2="36.82" xlink:href="#linear-gradient"/><linearGradient id="linear-gradient-12" x1="69.95" y1="45.05" x2="62.15" y2="46.75" gradientTransform="matrix(1,0,0,1,0,0)" xlink:href="#linear-gradient-8"/><linearGradient id="linear-gradient-13" x1="77.56" y1="18.32" x2="62.56" y2="33.15" gradientUnits="userSpaceOnUse"><stop offset=".34" stop-color="#db14e0"/><stop offset=".9" stop-color="#9702d7"/></linearGradient><linearGradient id="linear-gradient-14" x1="65.49" y1="35.93" x2="81.2" y2="35.93" gradientUnits="userSpaceOnUse"><stop offset=".04" stop-color="#c53bff"/><stop offset=".9" stop-color="#8d6afa"/></linearGradient><linearGradient id="linear-gradient-15" x1="58.36" y1="58.08" x2="66.73" y2="70.01" gradientTransform="matrix(1,0,0,1,0,0)" xlink:href="#linear-gradient-3"/><linearGradient id="linear-gradient-16" x1="64.57" y1="69.95" x2="42.07" y2="53.45" xlink:href="#linear-gradient"/><linearGradient id="linear-gradient-17" x1="7.57" y1="71.56" x2="14.58" y2="57.88" xlink:href="#linear-gradient"/><linearGradient id="linear-gradient-18" x1="17.75" y1="55.89" x2="25.21" y2="66.53" gradientTransform="matrix(1,0,0,1,0,0)" xlink:href="#linear-gradient-3"/><linearGradient id="linear-gradient-19" x1="32.15" y1="57.87" x2="43.2" y2="73.62" gradientTransform="matrix(1,0,0,1,0,0)" xlink:href="#linear-gradient-3"/><linearGradient id="linear-gradient-20" x1="227.13" y1="28.8" x2="231.51" y2="21.25" xlink:href="#linear-gradient"/><linearGradient id="linear-gradient-21" x1="233.57" y1="21.75" x2="227.95" y2="13.94" xlink:href="#linear-gradient"/><linearGradient id="linear-gradient-22" x1="201.72" y1="-14.94" x2="197.01" y2="-18.79" xlink:href="#linear-gradient-3"/><linearGradient id="linear-gradient-23" x1="231.13" y1="28.98" x2="235.51" y2="21.42" xlink:href="#linear-gradient"/><linearGradient id="linear-gradient-24" x1="237.33" y1="12.55" x2="228.08" y2="22.63" xlink:href="#linear-gradient"/><linearGradient id="linear-gradient-25" x1="206.44" y1="-16.67" x2="208.66" y2="-15.51" xlink:href="#linear-gradient-6"/></defs><g id="Layer_1-2"><polygon class="cls-11" points="62.2 21.79 40.41 43.29 18.9 21.5 26.58 13.92 40.51 28.04 54.62 14.11 62.2 21.79"/><polygon class="cls-10" points="40.7 0 40.51 28.04 26.58 13.92 40.7 0"/><polygon class="cls-9" points="40.51 28.04 18.9 21.5 26.58 13.92 40.51 28.04"/><polygon class="cls-8" points="48.51 35.3 40.41 43.29 40.51 28.04 62.2 21.79 48.51 35.3 48.51 35.3"/><polygon class="cls-5" points="54.62 14.11 40.51 28.04 40.7 0 54.62 14.11"/><polygon class="cls-6" points="62.2 21.79 40.51 28.04 54.62 14.11 62.2 21.79"/><polygon class="cls-4" points="41.77 54.06 27.81 53.96 15.31 36.45 18.02 26.82 41.77 54.06"/><polygon class="cls-3" points="27.81 53.96 10.42 53.85 15.31 36.45 27.81 53.96"/><polygon class="cls-7" points="18.02 26.82 15.31 36.45 2.21 18.11 12.45 20.44 17.13 25.81 18.02 26.82"/><polygon class="cls-12" points="15.31 36.45 10.42 53.85 0 17.6 2.21 18.11 15.31 36.45"/><polygon class="cls-13" points="38.79 54.04 52.76 54.13 65.49 36.79 62.91 27.12 38.79 54.04"/><polygon class="cls-14" points="52.76 54.13 70.14 54.25 65.49 36.79 52.76 54.13"/><polygon class="cls-15" points="79.23 18.06 65.49 36.79 62.91 27.12 63.81 26.11 68.81 20.44 79.23 18.06"/><polygon class="cls-17" points="81.2 17.62 70.14 54.25 65.49 36.79 79.23 18.06 81.2 17.62"/><polygon class="cls-23" points="71.01 58.81 71.01 67.01 52.62 67.01 52.34 66.8 57.32 58.81 71.01 58.81"/><polygon class="cls-24" points="57.32 58.81 52.34 66.8 41.7 58.81 57.32 58.81"/><polygon class="cls-25" points="14.53 67.01 9.47 67.01 9.47 58.81 13.6 58.81 14.53 67.01"/><polygon class="cls-26" points="30.81 58.81 24.52 67.01 14.53 67.01 13.6 58.81 30.81 58.81"/><polygon class="cls-16" points="41.7 58.81 38.86 58.81 30.81 58.81 24.52 67.01 26.23 67.01 52.62 67.01 41.7 58.81"/><line class="cls-1" x1="57.75" y1="58.11" x2="57.32" y2="58.81"/><path class="cls-2" d="M97.51,68.08V30.96h6.14v5.39l-.6-1.35c.93-1.46,2.2-2.6,3.79-3.42,1.6-.81,3.44-1.22,5.54-1.22,2.56,0,4.87.63,6.93,1.9,2.06,1.26,3.7,2.96,4.92,5.09,1.21,2.13,1.82,4.52,1.82,7.18s-.6,5.02-1.8,7.18c-1.2,2.16-2.83,3.87-4.89,5.11s-4.41,1.87-7.03,1.87c-1.96,0-3.77-.39-5.41-1.17-1.65-.78-2.95-1.9-3.92-3.37l1.05-1.3v15.22h-6.54ZM111.58,52.71c1.5,0,2.83-.35,3.99-1.05,1.16-.7,2.07-1.66,2.72-2.89.65-1.23.97-2.64.97-4.24s-.32-3-.97-4.22c-.65-1.21-1.56-2.18-2.72-2.89-1.17-.71-2.5-1.07-3.99-1.07s-2.72.35-3.87,1.05-2.05,1.67-2.69,2.92-.97,2.65-.97,4.22.32,3.01.97,4.24c.65,1.23,1.55,2.2,2.69,2.89s2.44,1.05,3.87,1.05Z"/><path class="cls-2" d="M131.44,58.1v-27.14h6.14v6.04l-.5-.9c.63-2.03,1.62-3.44,2.97-4.24,1.35-.8,2.97-1.2,4.86-1.2h1.6v5.79h-2.34c-1.86,0-3.36.57-4.49,1.72s-1.7,2.75-1.7,4.81v15.12h-6.54Z"/><path class="cls-2" d="M163.37,58.7c-2.79,0-5.24-.63-7.33-1.9-2.09-1.26-3.73-2.98-4.89-5.14-1.17-2.16-1.75-4.56-1.75-7.18s.59-5.15,1.77-7.26c1.18-2.11,2.79-3.78,4.84-5.01,2.04-1.23,4.33-1.85,6.86-1.85,2.13,0,4,.35,5.61,1.05s2.99,1.66,4.12,2.89c1.13,1.23,2,2.64,2.59,4.22.6,1.58.9,3.29.9,5.11,0,.47-.02.95-.08,1.45-.05.5-.14.93-.27,1.3h-20.95v-4.99h17.26l-3.09,2.34c.3-1.53.22-2.89-.22-4.09-.45-1.2-1.18-2.15-2.19-2.84-1.02-.7-2.24-1.05-3.67-1.05s-2.58.34-3.64,1.02c-1.06.68-1.87,1.68-2.42,2.99-.55,1.31-.76,2.9-.62,4.76-.13,1.66.09,3.14.67,4.42.58,1.28,1.45,2.27,2.59,2.97s2.47,1.05,3.97,1.05,2.77-.32,3.82-.95c1.05-.63,1.87-1.48,2.47-2.54l5.29,2.59c-.53,1.3-1.36,2.44-2.49,3.44-1.13,1-2.47,1.78-4.02,2.34s-3.25.85-5.11.85Z"/><path class="cls-2" d="M191.76,58.7c-2.89,0-5.41-.69-7.56-2.07-2.15-1.38-3.62-3.25-4.42-5.61l4.89-2.34c.7,1.53,1.67,2.73,2.92,3.59,1.25.87,2.64,1.3,4.17,1.3,1.2,0,2.15-.27,2.84-.8.7-.53,1.05-1.23,1.05-2.1,0-.53-.14-.97-.42-1.32-.28-.35-.67-.65-1.15-.9s-1.01-.46-1.57-.62l-4.44-1.25c-2.29-.67-4.03-1.68-5.21-3.04-1.18-1.36-1.77-2.98-1.77-4.84,0-1.66.42-3.12,1.27-4.37.85-1.25,2.03-2.22,3.54-2.92,1.51-.7,3.25-1.05,5.21-1.05,2.56,0,4.82.62,6.79,1.85,1.96,1.23,3.36,2.96,4.19,5.19l-4.99,2.34c-.47-1.23-1.25-2.21-2.34-2.94-1.1-.73-2.33-1.1-3.69-1.1-1.1,0-1.96.25-2.59.75-.63.5-.95,1.15-.95,1.95,0,.5.13.93.4,1.3.27.37.64.67,1.12.9.48.23,1.04.45,1.67.65l4.34,1.3c2.23.67,3.95,1.66,5.16,2.99,1.21,1.33,1.82,2.96,1.82,4.89,0,1.63-.43,3.07-1.3,4.32-.87,1.25-2.06,2.22-3.59,2.92s-3.33,1.05-5.39,1.05Z"/><path class="cls-2" d="M219.84,58.4c-3.06,0-5.43-.84-7.11-2.52-1.68-1.68-2.52-4.05-2.52-7.11v-11.97h-4.69v-5.84h.5c1.33,0,2.36-.35,3.09-1.05s1.1-1.71,1.1-3.04v-2.1h6.54v6.19h6.24v5.84h-6.24v11.62c0,.9.16,1.66.47,2.29.32.63.82,1.11,1.5,1.45.68.33,1.55.5,2.62.5.23,0,.51-.02.82-.05.32-.03.62-.07.92-.1v5.59c-.47.07-1,.13-1.6.2-.6.07-1.15.1-1.65.1Z"/><rect class="cls-2" x="228.47" y="30.96" width="6.54" height="27.14"/><path class="cls-2" d="M254.62,69.08c-2.03,0-3.91-.33-5.64-1-1.73-.67-3.22-1.59-4.47-2.77-1.25-1.18-2.15-2.57-2.72-4.17l6.09-2.3c.4,1.26,1.19,2.29,2.37,3.07,1.18.78,2.64,1.17,4.37,1.17,1.33,0,2.5-.25,3.52-.75,1.01-.5,1.8-1.22,2.37-2.17s.85-2.09.85-3.42v-6.19l1.25,1.5c-.93,1.63-2.18,2.86-3.74,3.69-1.56.83-3.34,1.25-5.34,1.25-2.53,0-4.79-.58-6.79-1.75-2-1.16-3.56-2.76-4.69-4.79-1.13-2.03-1.7-4.31-1.7-6.84s.57-4.84,1.7-6.84,2.68-3.57,4.64-4.71c1.96-1.15,4.19-1.72,6.69-1.72,2.03,0,3.82.42,5.36,1.27s2.83,2.07,3.87,3.67l-.9,1.65v-5.99h6.19v25.79c0,2.36-.57,4.47-1.72,6.34-1.15,1.86-2.71,3.33-4.69,4.39-1.98,1.06-4.27,1.6-6.86,1.6ZM254.32,50.97c1.4,0,2.62-.31,3.67-.92,1.05-.62,1.87-1.47,2.47-2.57s.9-2.36.9-3.79-.31-2.65-.92-3.77c-.62-1.11-1.45-1.99-2.5-2.62-1.05-.63-2.25-.95-3.62-.95s-2.59.32-3.69.95c-1.1.63-1.95,1.51-2.57,2.62-.62,1.11-.92,2.37-.92,3.77s.31,2.64.92,3.74c.62,1.1,1.46,1.96,2.54,2.59,1.08.63,2.32.95,3.72.95Z"/><path class="cls-2" d="M287.25,58.7c-2.79,0-5.24-.63-7.33-1.9-2.09-1.26-3.73-2.98-4.89-5.14-1.17-2.16-1.75-4.56-1.75-7.18s.59-5.15,1.77-7.26c1.18-2.11,2.79-3.78,4.84-5.01,2.04-1.23,4.33-1.85,6.86-1.85,2.13,0,4,.35,5.61,1.05s2.99,1.66,4.12,2.89c1.13,1.23,2,2.64,2.59,4.22.6,1.58.9,3.29.9,5.11,0,.47-.02.95-.08,1.45-.05.5-.14.93-.27,1.3h-20.95v-4.99h17.26l-3.09,2.34c.3-1.53.22-2.89-.22-4.09-.45-1.2-1.18-2.15-2.19-2.84-1.02-.7-2.24-1.05-3.67-1.05s-2.58.34-3.64,1.02c-1.06.68-1.87,1.68-2.42,2.99-.55,1.31-.76,2.9-.62,4.76-.13,1.66.09,3.14.67,4.42.58,1.28,1.45,2.27,2.59,2.97s2.47,1.05,3.97,1.05,2.77-.32,3.82-.95c1.05-.63,1.87-1.48,2.47-2.54l5.29,2.59c-.53,1.3-1.36,2.44-2.49,3.44-1.13,1-2.47,1.78-4.02,2.34s-3.25.85-5.11.85Z"/><polygon class="cls-19" points="238.73 20.89 231.7 27.84 224.75 20.8 227.23 18.35 231.73 22.91 236.29 18.42 238.73 20.89"/><polygon class="cls-18" points="231.79 13.86 231.73 22.91 227.23 18.35 231.79 13.86"/><polygon class="cls-20" points="231.73 22.91 224.75 20.8 227.23 18.35 231.73 22.91"/><polygon class="cls-21" points="234.31 25.26 231.7 27.84 231.73 22.91 238.73 20.89 234.31 25.26 234.31 25.26"/><polygon class="cls-27" points="236.29 18.42 231.73 22.91 231.79 13.86 236.29 18.42"/><polygon class="cls-22" points="238.73 20.89 231.73 22.91 236.29 18.42 238.73 20.89"/></g></svg>